<?xml version="1.0" encoding="iso-8859-1"?>
<!-- Uploaded to: SVG Repo, www.svgrepo.com, Generator: SVG Repo Mixer Tools -->
<!DOCTYPE svg PUBLIC "-//W3C//DTD SVG 1.1//EN" "http://www.w3.org/Graphics/SVG/1.1/DTD/svg11.dtd">
<svg fill="#000000" version="1.1" id="Capa_1" xmlns="http://www.w3.org/2000/svg" xmlns:xlink="http://www.w3.org/1999/xlink" 
	 width="800px" height="800px" viewBox="0 0 33.237 33.237"
	 xml:space="preserve">
<g>
	<g id="CmNwux.tif">
		<g>
			<g>
				<path d="M12.255,30.793c-0.019-0.065-0.034-0.116-0.052-0.183c-0.122,0.054-0.23,0.014-0.344-0.008
					c-0.224-0.039-0.452-0.055-0.679-0.074c-0.084-0.008-0.17-0.002-0.28-0.002c0.079-0.233,0.189-0.414,0.321-0.572
					c0.129-0.156,0.205-0.334,0.29-0.512c0.033-0.068,0.065-0.148,0.12-0.195c0.244-0.205,0.307-0.496,0.353-0.781
					c0.03-0.189-0.002-0.395-0.028-0.588c-0.025-0.188,0.049-0.357,0.056-0.537c0.012-0.322,0.003-0.646,0.002-0.969
					c0-0.023-0.016-0.046-0.014-0.069c0.014-0.286-0.038-0.565-0.101-0.843c-0.035-0.152-0.069-0.307-0.12-0.453
					c-0.065-0.186-0.156-0.363-0.22-0.549c-0.043-0.125-0.066-0.26-0.082-0.391c-0.025-0.203-0.037-0.408-0.054-0.612
					c-0.003-0.039,0-0.08-0.009-0.118c-0.076-0.329-0.139-0.663-0.237-0.984c-0.1-0.332-0.253-0.647-0.35-0.979
					c-0.076-0.261-0.207-0.487-0.337-0.72c-0.099-0.178-0.151-0.383-0.244-0.563c-0.105-0.204-0.191-0.405-0.216-0.642
					c-0.018-0.168-0.109-0.321-0.22-0.463c-0.27-0.35-0.536-0.705-0.667-1.135c-0.058-0.191-0.216-0.308-0.322-0.462
					c-0.125-0.182-0.268-0.349-0.329-0.569c-0.038-0.138-0.07-0.273-0.066-0.418c0.006-0.19-0.01-0.381,0.004-0.571
					c0.016-0.234,0.056-0.467,0.08-0.701c0.01-0.102,0.03-0.211,0.006-0.307c-0.059-0.242-0.101-0.486-0.242-0.709
					c-0.179-0.284-0.369-0.572-0.428-0.916c-0.005-0.03-0.023-0.059-0.04-0.086c-0.229-0.367-0.463-0.73-0.686-1.1
					c-0.166-0.278-0.319-0.563-0.473-0.846C6.558,11,6.467,10.833,6.394,10.66c-0.158-0.367-0.434-0.61-0.782-0.786
					c-0.108-0.055-0.21-0.056-0.316,0.002C5.211,9.921,5.128,9.969,5.04,10.001c-0.087,0.032-0.18,0.056-0.272,0.063
					c-0.108,0.009-0.207,0.037-0.277,0.115c-0.172,0.192-0.397,0.312-0.601,0.459c-0.108,0.079-0.205,0.173-0.309,0.257
					c-0.24,0.192-0.479,0.385-0.724,0.571c-0.046,0.035-0.12,0.032-0.179,0.052c-0.1,0.033-0.152,0.095-0.154,0.211
					c-0.001,0.14-0.029,0.281-0.039,0.422c-0.006,0.09-0.054,0.15-0.125,0.189c-0.061,0.034-0.13,0.057-0.198,0.077
					c-0.188,0.056-0.377,0.112-0.567,0.161c-0.126,0.032-0.251,0.014-0.372-0.033c-0.163-0.064-0.326-0.11-0.506-0.099
					c-0.146,0.009-0.259-0.09-0.279-0.234c-0.035-0.262-0.139-0.484-0.345-0.653C0.026,11.504,0,11.436,0.003,11.35
					c0.004-0.103,0.004-0.206-0.001-0.309c-0.011-0.194,0.013-0.373,0.149-0.53c0.054-0.062,0.065-0.16,0.109-0.234
					c0.129-0.216,0.266-0.428,0.397-0.643C0.71,9.547,0.774,9.46,0.804,9.364c0.059-0.2,0.167-0.373,0.255-0.558
					C1.206,8.494,1.441,8.247,1.622,7.96C1.67,7.881,1.766,7.831,1.815,7.752c0.192-0.304,0.412-0.597,0.434-0.98
					c0.007-0.123,0.07-0.22,0.18-0.311c0.18-0.149,0.34-0.333,0.47-0.528c0.102-0.154,0.234-0.271,0.359-0.419
					C3.159,5.392,3.203,5.233,3.2,5.08c0.103-0.032,0.067-0.132,0.1-0.198C3.375,4.731,3.333,4.6,3.286,4.455
					C3.191,4.163,3.088,3.87,3.042,3.569c-0.046-0.294-0.03-0.598-0.033-0.898C3.007,2.624,3.047,2.576,3.081,2.5
					C3.313,3.007,3.571,3.463,3.99,3.834c-0.022-0.336-0.042-0.648-0.062-0.96C3.921,2.787,3.903,2.699,3.914,2.615
					c0.011-0.081,0.05-0.158,0.123-0.236c0.1,0.218,0.207,0.434,0.299,0.656c0.122,0.291,0.241,0.584,0.428,0.841
					c0.069,0.095,0.148,0.189,0.24,0.26c0.189,0.146,0.362,0.304,0.5,0.501c0.081,0.116,0.129,0.128,0.26,0.055
					c0.136-0.078,0.278-0.113,0.431-0.094C6.338,4.615,6.46,4.58,6.547,4.462C6.596,4.485,6.64,4.525,6.672,4.517
					C6.861,4.472,7.028,4.532,7.2,4.599C7.315,4.644,7.44,4.665,7.562,4.692c0.244,0.054,0.473,0.122,0.683,0.283
					c0.231,0.176,0.511,0.287,0.76,0.442C9.128,5.494,9.256,5.579,9.393,5.57c0.128-0.01,0.245,0.024,0.367,0.025
					c0.259,0.001,0.471,0.102,0.648,0.29c0.07,0.074,0.154,0.134,0.232,0.201c0.03,0.026,0.069,0.048,0.085,0.081
					c0.199,0.397,0.545,0.689,0.763,1.073c0.049,0.087,0.124,0.152,0.241,0.172c0.086,0.015,0.171,0.08,0.238,0.142
					c0.097,0.091,0.176,0.201,0.264,0.302c0.103,0.119,0.217,0.23,0.309,0.357c0.127,0.175,0.307,0.265,0.505,0.354
					c0.094-0.079,0.188-0.097,0.294,0.01c0.16,0.163,0.326,0.321,0.502,0.466c0.154,0.126,0.326,0.229,0.488,0.342
					c-0.015,0.008-0.046,0.024-0.086,0.046c0.04,0.042,0.071,0.104,0.117,0.117c0.174,0.05,0.288,0.176,0.413,0.291
					c0.046,0.043,0.103,0.078,0.14,0.128c0.266,0.36,0.654,0.59,0.967,0.902c0.163,0.163,0.403,0.225,0.649,0.253
					c0.529,0.06,1.059,0.027,1.587,0.044c0.157,0.005,0.313,0.037,0.469,0.037c0.156,0,0.313-0.025,0.47-0.04
					c0.077-0.008,0.155-0.02,0.233-0.029c0.174-0.02,0.333-0.086,0.496-0.147c0.22-0.083,0.448-0.155,0.68-0.192
					c0.261-0.042,0.506-0.123,0.745-0.222c0.293-0.121,0.587-0.213,0.911-0.228c0.216-0.01,0.429-0.093,0.644-0.144
					c0.03-0.007,0.059-0.027,0.09-0.03c0.212-0.02,0.424-0.035,0.636-0.054c0.304-0.028,0.598,0.048,0.888,0.11
					c0.385,0.082,0.762,0.198,1.136,0.318c0.237,0.076,0.484,0.144,0.693,0.333c0.04-0.057,0.072-0.108,0.11-0.154
					c0.062-0.076,0.116-0.182,0.198-0.216c0.335-0.136,0.686-0.227,1.042-0.289c0.103-0.018,0.218,0.015,0.323,0.037
					c0.132,0.027,0.26,0.066,0.389,0.099c0.156,0.04,0.278,0.124,0.387,0.249c0.117,0.137,0.263,0.249,0.389,0.378
					c0.132,0.135,0.255,0.278,0.381,0.419c0.021,0.023,0.031,0.062,0.056,0.076c0.222,0.125,0.254,0.356,0.32,0.567
					c0.079,0.248,0.148,0.499,0.306,0.713c0.026,0.037,0.055,0.086,0.055,0.129c0,0.169,0.082,0.309,0.166,0.438
					c0.142,0.218,0.194,0.464,0.262,0.704c0.085,0.301,0.145,0.61,0.21,0.917c0.013,0.058,0.007,0.12,0.006,0.18
					c-0.001,0.039-0.015,0.078-0.012,0.116c0.012,0.117,0.019,0.236,0.045,0.349c0.031,0.129,0.082,0.254,0.126,0.389
					c-0.018,0.006-0.043,0.015-0.059,0.02c0.112,0.325,0.223,0.65,0.337,0.973c0.11,0.314,0.301,0.597,0.354,0.94
					c-0.039-0.051-0.079-0.104-0.149-0.195c0.066,0.294,0.193,0.514,0.278,0.766c0.044-0.031,0.065-0.047,0.093-0.066
					c0.043,0.085,0.087,0.169,0.128,0.255c0.138,0.288,0.322,0.537,0.58,0.731c0.075,0.056,0.141,0.129,0.193,0.207
					c0.055,0.08,0.01,0.138-0.117,0.148c-0.013,0.077,0.154,0.15,0.015,0.23c0.062,0.117,0.111,0.242,0.188,0.349
					c0.143,0.196,0.302,0.379,0.432,0.601c-0.091-0.054-0.182-0.106-0.286-0.168c0.038,0.09,0.066,0.161,0.099,0.231
					c0.031,0.067,0.067,0.133,0.109,0.215c-0.038,0.054-0.082,0.115-0.13,0.183c0.051,0.08,0.104,0.166,0.174,0.273
					c-0.223-0.095-0.424-0.182-0.665-0.283c0.108,0.121,0.191,0.215,0.273,0.307c-0.175-0.072-0.285-0.217-0.44-0.35
					c-0.008,0.15,0.166,0.176,0.157,0.322c-0.056-0.05-0.098-0.09-0.143-0.127c-0.024-0.02-0.062-0.051-0.078-0.043
					c-0.17,0.068-0.218-0.069-0.29-0.165c-0.019-0.024-0.038-0.047-0.083-0.058c0.021,0.061,0.042,0.123,0.077,0.224
					c-0.083-0.054-0.138-0.089-0.19-0.124c-0.041,0.036-0.11,0.068-0.123,0.115c-0.016,0.061,0.013,0.134,0.029,0.248
					c-0.114-0.125-0.201-0.219-0.303-0.33c0,0.029-0.002,0.051,0.001,0.072c0.004,0.021,0.011,0.041,0.017,0.064
					c-0.057,0.004-0.108,0.007-0.165,0.011c-0.118-0.094-0.241-0.19-0.375-0.297c-0.014,0.019-0.028,0.037-0.051,0.067
					c-0.026-0.024-0.058-0.045-0.08-0.073c-0.104-0.128-0.176-0.271-0.342-0.354c-0.114-0.059-0.183-0.211-0.267-0.326
					c-0.181-0.246-0.377-0.484-0.496-0.816c-0.019,0.086-0.028,0.129-0.044,0.196c-0.029-0.037-0.057-0.06-0.069-0.089
					c-0.071-0.149-0.134-0.303-0.21-0.45c-0.045-0.085-0.031-0.146,0.047-0.203c-0.273-0.365-0.323-0.806-0.457-1.214
					c-0.071-0.217-0.143-0.433-0.198-0.653s-0.094-0.444-0.138-0.666c-0.032-0.161-0.062-0.322-0.137-0.487
					c-0.138,0.561-0.303,1.117-0.404,1.684c-0.085,0.471-0.18,0.95-0.12,1.433c0.027,0.233,0.086,0.465,0.158,0.688
					c0.163,0.509,0.349,1.011,0.516,1.519c0.069,0.208,0.122,0.422,0.166,0.637c0.019,0.092-0.131,0.975-0.166,1.14
					c-0.111,0.522-0.22,1.048-0.287,1.577c-0.053,0.421-0.039,0.851-0.064,1.275c-0.014,0.243-0.003,0.485,0.006,0.728
					c0.007,0.243,0.027,0.487,0.048,0.729c0.018,0.219-0.062,0.401-0.193,0.567c-0.034,0.043-0.066,0.088-0.098,0.133
					c-0.195,0.282-0.132,0.574-0.007,0.851c0.081,0.181,0.053,0.356,0.055,0.537c0.001,0.074-0.051,0.105-0.122,0.119
					c-0.347,0.067-0.692,0.145-1.04,0.201c-0.165,0.027-0.336,0.016-0.528,0.021c-0.005-0.121-0.025-0.224-0.01-0.32
					c0.031-0.186,0.083-0.367,0.127-0.549c0.011-0.047,0.035-0.09,0.041-0.137c0.026-0.215,0.127-0.384,0.295-0.519
					c0.088-0.071,0.127-0.171,0.156-0.284c0.048-0.184,0.078-0.365,0.099-0.555c0.025-0.23,0.112-0.455,0.167-0.684
					c0.04-0.166,0.099-0.334,0.102-0.504c0.007-0.324,0.041-0.643,0.089-0.963c0.026-0.171,0.003-0.348,0.011-0.521
					c0.007-0.141,0.025-0.281,0.043-0.422c0.026-0.201-0.02-0.395-0.096-0.574c-0.08-0.189-0.198-0.361-0.282-0.549
					c-0.06-0.135-0.093-0.281-0.137-0.424c-0.01-0.032-0.019-0.067-0.033-0.123c-0.083,0.071-0.053,0.147-0.066,0.211
					c-0.023,0.115-0.028,0.242-0.085,0.341c-0.105,0.185-0.141,0.379-0.147,0.585c-0.002,0.054-0.012,0.109-0.027,0.162
					c-0.151,0.537-0.253,1.087-0.356,1.635c-0.025,0.131-0.058,0.262-0.1,0.389c-0.079,0.236-0.091,0.479-0.094,0.725
					c-0.004,0.342-0.093,0.552-0.105,0.879c-0.086,0.127-0.117,0.178-0.269,0.238c-0.163,0.065-0.247,0.258-0.239,0.443
					c0.01,0.229,0.206,0.223,0.159,0.529c-0.048,0.105-0.09,0.206-0.137,0.303c-0.079,0.164-0.196,0.238-0.394,0.238
					c-0.266-0.001-0.53,0.049-0.797,0.072c-0.171,0.016-0.343,0.039-0.531-0.024c0.102-0.362,0.148-0.731,0.343-1.054
					c0.101-0.168,0.213-0.332,0.344-0.478c0.197-0.219,0.276-0.483,0.288-0.758c0.009-0.198,0.073-0.369,0.14-0.544
					c0.241-0.627,0.423-1.271,0.565-1.926c0.043-0.195-0.002-0.416,0.004-0.626c0.006-0.201-0.046-0.404-0.084-0.604
					c-0.02-0.098-0.05-0.201-0.104-0.283c-0.153-0.24-0.224-0.498-0.229-0.779c-0.003-0.182-0.033-0.36-0.15-0.512
					c-0.048-0.062-0.096-0.136-0.107-0.209c-0.043-0.261-0.224-0.427-0.381-0.612c-0.112-0.132-0.206-0.277-0.307-0.419
					c-0.208-0.293-0.308-0.627-0.42-0.965c-0.123-0.371-0.265-0.744-0.516-1.059c-0.042-0.053-0.053-0.131-0.083-0.195
					c-0.05-0.107-0.101-0.216-0.157-0.319c-0.147-0.273-0.345-0.308-0.577-0.108c-0.072,0.062-0.15,0.116-0.218,0.182
					c-0.308,0.305-0.706,0.445-1.093,0.603c-0.409,0.165-0.821,0.325-1.241,0.459c-0.298,0.095-0.605,0.171-0.927,0.167
					c-0.444-0.007-0.892,0.031-1.331-0.008c-0.688-0.061-1.377-0.014-2.063-0.053c-0.267-0.016-0.534-0.032-0.802-0.037
					c-0.04-0.002-0.08-0.006-0.119,0.002c-0.353,0.066-0.404,0.123-0.403,0.432c0.006,0.967-0.002,1.934,0.005,2.9
					c0.003,0.387,0.006,0.777,0.057,1.158c0.052,0.393,0.103,0.782,0.083,1.178c-0.005,0.094-0.019,0.188-0.041,0.279
					c-0.058,0.248-0.078,0.498-0.015,0.748c0.008,0.03,0.009,0.063,0.007,0.096c-0.032,0.369,0.062,0.719,0.155,1.07
					c0.066,0.25,0.143,0.5,0.138,0.765c-0.002,0.085,0.032,0.17,0.043,0.255c0.037,0.287-0.111,0.516-0.241,0.749
					c-0.09,0.161-0.154,0.313-0.105,0.512c0.047,0.19-0.032,0.374-0.166,0.522c-0.105,0.115-0.2,0.233-0.288,0.365
					c-0.149,0.224-0.383,0.377-0.666,0.328c-0.253-0.043-0.504-0.031-0.755-0.043C12.319,30.803,12.296,30.798,12.255,30.793z
					 M13.344,27.749c0.018,0.004,0.036,0.008,0.054,0.012c0.023-0.044,0.061-0.088,0.065-0.133c0.009-0.118,0.015-0.239,0-0.356
					c-0.05-0.398-0.082-0.799-0.09-1.199c-0.003-0.146-0.025-0.279-0.097-0.408c-0.19-0.34-0.33-0.697-0.334-1.096
					c-0.001-0.053-0.039-0.104-0.073-0.188c-0.084,0.305-0.086,0.57-0.032,0.836c0.016,0.077,0.055,0.153,0.054,0.229
					c-0.005,0.406,0.177,0.785,0.154,1.192c-0.003,0.046,0.014,0.093,0.027,0.138C13.163,27.099,13.253,27.424,13.344,27.749z
					 M13.262,28.545c-0.346,0.026-0.49,0.329-0.375,0.772c0.073,0.026,0.117-0.006,0.148-0.071c0.033-0.07,0.058-0.149,0.107-0.205
					C13.273,28.894,13.283,28.726,13.262,28.545z M26.407,21.027c-0.01-0.058-0.016-0.115-0.03-0.172
					c-0.019-0.074-0.042-0.149-0.064-0.224c-0.048-0.157-0.099-0.313-0.146-0.47c-0.025-0.088-0.095-0.108-0.197-0.141
					C26.094,20.385,26.192,20.726,26.407,21.027z"/>
				<path d="M13.344,27.749c-0.091-0.325-0.182-0.649-0.272-0.974c-0.013-0.045-0.029-0.094-0.027-0.139
					c0.023-0.406-0.158-0.787-0.154-1.191c0.001-0.076-0.039-0.152-0.054-0.229c-0.054-0.267-0.052-0.53,0.032-0.836
					c0.034,0.084,0.072,0.136,0.073,0.187c0.004,0.399,0.144,0.756,0.334,1.097c0.072,0.129,0.094,0.263,0.097,0.407
					c0.008,0.402,0.039,0.803,0.09,1.201c0.015,0.116,0.009,0.237,0,0.355c-0.004,0.046-0.042,0.089-0.065,0.133
					C13.38,27.757,13.362,27.752,13.344,27.749z"/>
				<path d="M13.262,28.545c0.022,0.181,0.012,0.349-0.12,0.496c-0.05,0.056-0.074,0.135-0.107,0.205
					c-0.031,0.065-0.075,0.099-0.148,0.071C12.771,28.875,12.916,28.572,13.262,28.545z"/>
			</g>
		</g>
	</g>
</g>
</svg>