<svg xmlns="http://www.w3.org/2000/svg" xmlns:xlink="http://www.w3.org/1999/xlink" xml:space="preserve" style="shape-rendering:geometricPrecision;text-rendering:geometricPrecision;image-rendering:optimizeQuality;" viewBox="0 0 1.70666 2.133325" x="0px" y="0px" fill-rule="evenodd" clip-rule="evenodd"><defs><style type="text/css">
   
    .fil0 {fill:black}
   
  </style></defs><g><path class="fil0" d="M1.57395 0.855744l-1.5539 0c-0.0110354,0 -0.0199961,-0.00896063 -0.0199961,-0.0199961l0 -0.203748c0,-0.0110394 0.00896063,-0.02 0.0199961,-0.02l1.5539 0c0.0110394,0 0.02,0.00896063 0.02,0.02l0 0.203748c0,0.0110512 -0.00895669,0.0199961 -0.02,0.0199961zm-0.0717244 -0.0796299c-0.0252913,0 -0.02,-0.030811 -0.02,-0.0523701l-0.261941 0c-0.0263307,0 -0.0263189,-0.0399961 0,-0.0399961l0.281949 0c0.0272756,0 0.0200157,0.0383386 0.02,0.0723661 -1.1811e-005,0.0110551 -0.00897244,0.02 -0.0200079,0.02zm-1.41043 0c-0.0272913,0 -0.02,-0.0383386 -0.02,-0.0723661 0,-0.0110394 0.00896063,-0.02 0.02,-0.02l0.25326 0c0.0263268,0 0.0263268,0.0399961 0,0.0399961l-0.233264 0c0,0.0215906 0.00529134,0.0523701 -0.0199961,0.0523701z"/><path class="fil0" d="M0.184181 1.01706l-0.113768 0c-0.0110354,0 -0.0199961,-0.00897244 -0.0199961,-0.02l0 -0.101315 0.15376 0 0 0.101315c0,0.0110394 -0.00895276,0.02 -0.0199961,0.02z"/><path class="fil0" d="M0.23372 1.28903c-0.185268,0 -0.221374,-0.20415 -0.219264,-0.292449 0.000251969,-0.0108583 0.00912205,-0.0195394 0.0199803,-0.0195394l0.18574 0c0.0131378,0 0.022748,0.0125394 0.0193189,0.0252362 -0.0424685,0.15678 0.0956457,0.232783 0.0970472,0.233524 0.0156339,0.00830709 0.0132953,0.0315512 -0.00356693,0.036748 -0.0355827,0.010937 -0.0689803,0.0164803 -0.0992559,0.0164803z"/><path class="fil0" d="M0.492768 1.01706l-0.113772 0c-0.0110354,0 -0.0199961,-0.00897244 -0.0199961,-0.02l0 -0.101315 0.153768 0 0 0.101315c0,0.0110394 -0.00896063,0.02 -0.02,0.02z"/><path class="fil0" d="M0.542307 1.28903c-0.185264,0 -0.221374,-0.20415 -0.219264,-0.292449 0.000251969,-0.0108583 0.00912205,-0.0195394 0.0199843,-0.0195394l0.185736 0c0.0131378,0 0.022748,0.0125394 0.0193228,0.0252362 -0.0424685,0.15678 0.0956457,0.232783 0.0970472,0.233524 0.0156299,0.00830709 0.0132953,0.0315512 -0.00357087,0.036748 -0.0355827,0.010937 -0.0689685,0.0164803 -0.0992559,0.0164803z"/><path class="fil0" d="M0.80135 1.01706l-0.113764 0c-0.0110394,0 -0.02,-0.00897244 -0.02,-0.02l0 -0.101315 0.153764 0 0 0.101315c0,0.0110394 -0.00894488,0.02 -0.02,0.02z"/><path class="fil0" d="M0.85089 1.28903c-0.185264,0 -0.221374,-0.20415 -0.219264,-0.292449 0.000251969,-0.0108583 0.00912598,-0.0195394 0.0199843,-0.0195394l0.185736 0c0.0131378,0 0.022752,0.0125394 0.0193228,0.0252362 -0.0424685,0.15678 0.0956457,0.232783 0.0970472,0.233524 0.0155748,0.00827165 0.0134331,0.0315157 -0.00357087,0.036748 -0.0355827,0.010937 -0.0689646,0.0164803 -0.0992559,0.0164803z"/><path class="fil0" d="M1.10995 1.01706l-0.113764 0c-0.0110394,0 -0.02,-0.00897244 -0.02,-0.02l0 -0.101315 0.153764 0 0 0.101315c0,0.0110394 -0.00897244,0.02 -0.02,0.02z"/><path class="fil0" d="M1.15947 1.28903c-0.185272,0 -0.221382,-0.20413 -0.219272,-0.292449 0.000251969,-0.0108583 0.00912205,-0.0195394 0.0199803,-0.0195394l0.18574 0c0.0131457,0 0.0227323,0.0125315 0.0193031,0.0252362 -0.0424685,0.15678 0.0956614,0.232783 0.0970472,0.233524 0.0156417,0.00835433 0.0133504,0.0315394 -0.00356693,0.036748 -0.0355512,0.010937 -0.0689409,0.0164803 -0.0992323,0.0164803z"/><path class="fil0" d="M1.51943 1.08527c-0.0110394,0 -0.02,-0.0089685 -0.02,-0.0199961l0 -0.229508c0,-0.0263228 0.0399961,-0.0262874 0.0399961,0l0 0.229508c0,0.0109921 -0.00895669,0.0199961 -0.0199961,0.0199961z"/><path class="fil0" d="M1.51943 1.40243c-0.103201,0 -0.187165,-0.0839685 -0.187165,-0.187181 0,-0.103201 0.0839646,-0.18715 0.187165,-0.18715 0.103197,0 0.187165,0.0839488 0.187165,0.18715 -1.5748e-005,0.103213 -0.0839685,0.187181 -0.187165,0.187181zm0 -0.0982874c-0.116961,0 -0.116969,-0.177748 0,-0.177748 0.116972,0 0.116949,0.177748 0,0.177748zm0 -0.137752c-0.0643268,0 -0.0643268,0.0977559 0,0.0977559 0.0643228,0 0.0643228,-0.0977559 0,-0.0977559z"/><path class="fil0" d="M0.886846 0.572004l0.624756 -0.266157c0.00725591,-0.00309055 0.0137402,-0.00192913 0.0186142,0.00148031 0.00533858,0.00309449 0.0092126,0.00873228 0.0092126,0.0169252l0 0.247752 -0.652583 0z"/></g><text x="0" y="16.70666" fill="#000000" font-size="5px" font-weight="bold" font-family="'Helvetica Neue', Helvetica, Arial-Unicode, Arial, Sans-serif">Created by Amir Ali</text><text x="0" y="21.70666" fill="#000000" font-size="5px" font-weight="bold" font-family="'Helvetica Neue', Helvetica, Arial-Unicode, Arial, Sans-serif">from the Noun Project</text></svg>