<svg xmlns="http://www.w3.org/2000/svg" xmlns:xlink="http://www.w3.org/1999/xlink" version="1.1" x="0px" y="0px" viewBox="0 0 512 640" style="enable-background:new 0 0 512 512;" xml:space="preserve"><style type="text/css">
	.st0{fill:none;}
</style><g><path class="st0" d="M215,326.1l-11.9-34.8l-59.4,79.5c9.2,9.1,15.2,21.2,17.1,34.6h75.4c0.3,0,0.5,0.1,0.8,0.2V340h-6.4   C222.6,340,215.8,333.9,215,326.1z"/><path class="st0" d="M253.8,461.2c0,5.5,4.6,10.2,10,10.2c5.5,0,10-4.6,10-10.2V340h-19.9V461.2z"/><path class="st0" d="M101.2,398.8c-8.2,0-14.8,6.7-14.8,14.8c0,8.2,6.7,14.8,14.8,14.8c8.2,0,14.8-6.7,14.8-14.8   C116,405.5,109.4,398.8,101.2,398.8z"/><path class="st0" d="M182.3,178.5l4.5,13.3h175l4.4-13.2c-0.7-1.4-2.9-3-5.8-3H188.2C185.3,175.6,183,177,182.3,178.5z"/><polygon class="st0" points="302,159 302,159 327.7,159 384,92.2 359.2,82.6  "/><path d="M463,24c-4.6,0-8.3,3.7-8.3,8.3v10.9h-25.6c-2.5,0-4.8,1.1-6.3,2.9l-27.5,32.7l-36-13.9c-3.5-1.3-7.4-0.2-9.6,2.8   L281.3,159h-93.2c-12.5,0-22.6,9.1-22.6,20.3c0,0.9,0.1,1.8,0.4,2.7l30.7,90.2l-66.3,88.7c-8.7-4.8-18.5-7.8-29.2-7.8   c-33.4,0-60.5,27.2-60.5,60.5c0,33.4,27.2,60.5,60.5,60.5c30.6,0,55.6-22.8,59.7-52.3h75.4c0.3,0,0.5-0.1,0.8-0.2v39.5   c0,14.8,11.9,26.8,26.6,26.8c14.7,0,26.6-12,26.6-26.8V422h35.3c4,23.6,24.5,41.6,49.2,41.6c27.6,0,50-22.4,50-50   c0-27.6-22.4-50-50-50c-24.7,0-45.2,18.1-49.2,41.7h-35.3V340h27.6c8,0,14.6-6.1,15.5-13.9l49.3-144c0.3-0.9,0.5-1.8,0.5-2.7   c0-11.2-10.2-20.3-22.6-20.3h-11L433,59.8h21.7v10.9c0,4.6,3.7,8.3,8.3,8.3s8.3-3.7,8.3-8.3V32.3C471.4,27.7,467.6,24,463,24z    M374.8,395.2c10.2,0,18.5,8.3,18.5,18.5s-8.3,18.5-18.5,18.5s-18.5-8.3-18.5-18.5S364.6,395.2,374.8,395.2z M101.2,428.4   c-8.2,0-14.8-6.7-14.8-14.8c0-8.2,6.7-14.8,14.8-14.8c8.2,0,14.8,6.7,14.8,14.8C116,421.8,109.4,428.4,101.2,428.4z M237.1,405.4   c-0.3,0-0.5-0.2-0.8-0.2h-75.4c-1.9-13.4-7.9-25.5-17.1-34.6l59.4-79.5l11.9,34.8c0.8,7.8,7.5,13.9,15.7,13.9h6.4V405.4z    M273.7,461.2c0,5.6-4.5,10.2-10,10.2c-5.4,0-10-4.7-10-10.2V340h19.9V461.2z M360.4,175.6c2.9,0,5.2,1.6,5.8,3l-4.4,13.2h-175   l-4.5-13.3c0.6-1.5,3-2.9,5.8-2.9H360.4z M327.7,159H302v0l57.1-76.4l24.8,9.6L327.7,159z"/></g><text x="0" y="527" fill="#000000" font-size="5px" font-weight="bold" font-family="'Helvetica Neue', Helvetica, Arial-Unicode, Arial, Sans-serif">Created by Adeel rehman</text><text x="0" y="532" fill="#000000" font-size="5px" font-weight="bold" font-family="'Helvetica Neue', Helvetica, Arial-Unicode, Arial, Sans-serif">from the Noun Project</text></svg>